<?xml version="1.0" standalone="no"?>
<!DOCTYPE svg PUBLIC "-//W3C//DTD SVG 20010904//EN"
 "http://www.w3.org/TR/2001/REC-SVG-20010904/DTD/svg10.dtd">
<svg version="1.0" xmlns="http://www.w3.org/2000/svg"
 width="260.000000pt" height="260.000000pt" viewBox="0 0 260.000000 260.000000"
 preserveAspectRatio="xMidYMid meet">
<metadata>
Created by potrace 1.14, written by Peter Selinger 2001-2017
</metadata>
<g transform="translate(0.000000,260.000000) scale(0.100000,-0.100000)"
fill="#000000" stroke="none">
<path d="M1382 1863 c-40 -19 -73 -56 -86 -96 -12 -34 -13 -203 -2 -252 9 -39
18 -95 20 -119 1 -17 -7 -19 -89 -18 -136 0 -127 -2 -121 30 4 15 9 38 11 52
3 14 7 36 10 50 3 14 5 69 6 122 1 83 -2 103 -21 136 -41 73 -45 73 -470 73
-315 0 -383 -2 -411 -15 -50 -22 -64 -37 -78 -78 -14 -42 -13 -209 1 -272 15
-64 18 -79 22 -113 3 -18 7 -40 10 -50 6 -23 18 -93 19 -115 1 -10 4 -18 7
-18 3 0 6 -8 6 -17 1 -17 8 -61 19 -113 15 -73 38 -197 38 -208 0 -7 10 -23
21 -35 21 -22 23 -22 326 -20 168 0 315 2 327 2 28 1 53 38 57 86 2 20 7 39
11 43 8 8 395 10 400 1 2 -3 7 -21 10 -40 8 -52 26 -122 37 -145 10 -21 13
-21 406 -22 409 0 438 2 439 40 2 28 13 100 18 107 2 4 7 23 10 41 3 18 19 94
35 169 16 74 26 139 24 143 -3 4 0 8 7 8 7 0 10 2 7 5 -3 3 1 35 8 71 8 35 16
79 19 97 3 18 12 60 20 95 8 35 15 107 15 161 0 117 -22 172 -84 207 -36 20
-49 21 -505 21 -392 1 -473 -2 -499 -14z"/>
</g>
</svg>
